<?xml version="1.0" encoding="UTF-8"?>
<svg id="Lager_1" xmlns="http://www.w3.org/2000/svg" xmlns:xlink="http://www.w3.org/1999/xlink" version="1.1" viewBox="0 0 36 36">
  <!-- Generator: Adobe Illustrator 30.8.1, SVG Export Plug-In . SVG Version: 2.1.4 Build 1)  -->
  <defs>
    <style>
      .st0, .st1, .st2, .st3 {
        fill: none;
      }

      .st4 {
        opacity: .5;
      }

      .st4, .st5 {
        isolation: isolate;
      }

      .st5 {
        opacity: .6;
      }

      .st6 {
        clip-path: url(#clippath-1);
      }

      .st7 {
        clip-path: url(#clippath-2);
      }

      .st1 {
        stroke: #b3572a;
        stroke-width: 1.2px;
      }

      .st1, .st2, .st3 {
        stroke-linecap: round;
        stroke-linejoin: round;
      }

      .st8 {
        clip-path: url(#clippath);
      }

      .st2 {
        stroke-width: 1.12px;
      }

      .st2, .st3 {
        stroke: #0a3a5b;
      }

      .st3 {
        stroke-width: 1.35px;
      }
    </style>
    <clipPath id="clippath">
      <rect class="st0" width="36" height="36"/>
    </clipPath>
    <clipPath id="clippath-1">
      <rect class="st0" x="12.72" y="8.13" width="10.56" height="5.52"/>
    </clipPath>
    <clipPath id="clippath-2">
      <rect class="st0" x="6" y="17.97" width="24" height="1.68"/>
    </clipPath>
  </defs>
  <g class="st8">
    <g class="st5">
      <g class="st6">
        <path class="st2" d="M13.5,12.75c0-4.5,9-4.5,9,0"/>
      </g>
    </g>
    <path class="st3" d="M9,12.75h18c.3,0,.59.06.86.17.28.11.52.28.73.49.21.21.37.45.49.73.11.28.17.56.17.86v12.75c0,.3-.06.59-.17.86-.11.28-.28.52-.49.73-.21.21-.45.37-.73.49-.28.11-.56.17-.86.17H9c-.3,0-.59-.06-.86-.17-.28-.11-.52-.28-.73-.49-.21-.21-.37-.45-.49-.73s-.17-.56-.17-.86v-12.75c0-.3.06-.59.17-.86s.28-.52.49-.73c.21-.21.45-.37.73-.49.28-.11.56-.17.86-.17Z"/>
    <g class="st4">
      <g class="st7">
        <line class="st3" x1="6.75" y1="18.75" x2="29.25" y2="18.75"/>
      </g>
    </g>
    <line class="st1" x1="18" y1="12.75" x2="18" y2="30"/>
  </g>
</svg>